<svg xmlns="http://www.w3.org/2000/svg" width="820" height="340" viewBox="0 0 820 340"><rect x="310" y="120" width="200" height="90" rx="10" fill="#1a237e" stroke="none"/><text x="410" y="155" text-anchor="middle" font-family="Arial,Helvetica,sans-serif" font-size="13" font-weight="bold" fill="white"><tspan x="410" dy="-18">FactGLEntry</tspan><tspan x="410" dy="18">journalId | amount</tspan></text><text x="410" y="180" text-anchor="middle" font-family="Arial,Helvetica,sans-serif" font-size="11" font-weight="normal" fill="white"><tspan x="410" dy="-18">debit | credit | periodKey</tspan></text><rect x="30" y="50" width="170" height="80" rx="8" fill="#00897b" stroke="none"/><text x="115" y="75" text-anchor="middle" font-family="Arial,Helvetica,sans-serif" font-size="12" font-weight="bold" fill="white"><tspan x="115" dy="-18">DimAccount</tspan></text><text x="115" y="100" text-anchor="middle" font-family="Arial,Helvetica,sans-serif" font-size="10" font-weight="normal" fill="white"><tspan x="115" dy="-18">accountKey</tspan><tspan x="115" dy="18">accountCode</tspan><tspan x="115" dy="18">accountType</tspan></text><line x1="410" y1="165" x2="200" y2="90" stroke="#bbbbbb" stroke-width="1.5"/><rect x="600" y="50" width="170" height="80" rx="8" fill="#00897b" stroke="none"/><text x="685" y="75" text-anchor="middle" font-family="Arial,Helvetica,sans-serif" font-size="12" font-weight="bold" fill="white"><tspan x="685" dy="-18">DimEntity</tspan></text><text x="685" y="100" text-anchor="middle" font-family="Arial,Helvetica,sans-serif" font-size="10" font-weight="normal" fill="white"><tspan x="685" dy="-18">entityKey</tspan><tspan x="685" dy="18">entityCode</tspan><tspan x="685" dy="18">jurisdiction</tspan></text><line x1="610" y1="165" x2="600" y2="90" stroke="#bbbbbb" stroke-width="1.5"/><rect x="30" y="200" width="170" height="80" rx="8" fill="#00897b" stroke="none"/><text x="115" y="225" text-anchor="middle" font-family="Arial,Helvetica,sans-serif" font-size="12" font-weight="bold" fill="white"><tspan x="115" dy="-18">DimTime</tspan></text><text x="115" y="250" text-anchor="middle" font-family="Arial,Helvetica,sans-serif" font-size="10" font-weight="normal" fill="white"><tspan x="115" dy="-18">periodKey</tspan><tspan x="115" dy="18">fiscalYear</tspan><tspan x="115" dy="18">periodType</tspan></text><line x1="410" y1="165" x2="200" y2="240" stroke="#bbbbbb" stroke-width="1.5"/><rect x="600" y="200" width="170" height="80" rx="8" fill="#00897b" stroke="none"/><text x="685" y="225" text-anchor="middle" font-family="Arial,Helvetica,sans-serif" font-size="12" font-weight="bold" fill="white"><tspan x="685" dy="-18">DimCurrency</tspan></text><text x="685" y="250" text-anchor="middle" font-family="Arial,Helvetica,sans-serif" font-size="10" font-weight="normal" fill="white"><tspan x="685" dy="-18">currencyCode</tspan><tspan x="685" dy="18">fxRate</tspan><tspan x="685" dy="18">rateType</tspan></text><line x1="610" y1="165" x2="600" y2="240" stroke="#bbbbbb" stroke-width="1.5"/></svg>