<svg xmlns="http://www.w3.org/2000/svg" width="800" height="320"><rect x="30" y="40" width="155" height="180" rx="10" fill="#1a237e"/><text x="107" y="72" text-anchor="middle" font-family="Arial,sans-serif" font-size="16" font-weight="bold" fill="white">ROWS</text><text x="107" y="102" text-anchor="middle" font-family="Arial,sans-serif" font-size="12" fill="white">accountType</text><text x="107" y="124" text-anchor="middle" font-family="Arial,sans-serif" font-size="12" fill="white">fiscalPeriod</text><text x="107" y="146" text-anchor="middle" font-family="Arial,sans-serif" font-size="12" fill="white">costCenter</text><rect x="230" y="40" width="155" height="180" rx="10" fill="#00897b"/><text x="307" y="72" text-anchor="middle" font-family="Arial,sans-serif" font-size="16" font-weight="bold" fill="white">COLUMNS</text><text x="307" y="102" text-anchor="middle" font-family="Arial,sans-serif" font-size="12" fill="white">entityKey</text><text x="307" y="124" text-anchor="middle" font-family="Arial,sans-serif" font-size="12" fill="white">journalType</text><text x="307" y="146" text-anchor="middle" font-family="Arial,sans-serif" font-size="12" fill="white">productKey</text><rect x="440" y="40" width="155" height="180" rx="10" fill="#ff7043"/><text x="517" y="72" text-anchor="middle" font-family="Arial,sans-serif" font-size="16" font-weight="bold" fill="white">VALUES</text><text x="517" y="102" text-anchor="middle" font-family="Arial,sans-serif" font-size="12" fill="white">SUM</text><text x="517" y="124" text-anchor="middle" font-family="Arial,sans-serif" font-size="12" fill="white">COUNT</text><text x="517" y="146" text-anchor="middle" font-family="Arial,sans-serif" font-size="12" fill="white">AVG</text><text x="517" y="168" text-anchor="middle" font-family="Arial,sans-serif" font-size="12" fill="white">MIN</text><text x="517" y="190" text-anchor="middle" font-family="Arial,sans-serif" font-size="12" fill="white">MAX</text><rect x="630" y="40" width="155" height="180" rx="10" fill="#ffa000"/><text x="707" y="72" text-anchor="middle" font-family="Arial,sans-serif" font-size="16" font-weight="bold" fill="white">FILTERS</text><text x="707" y="102" text-anchor="middle" font-family="Arial,sans-serif" font-size="12" fill="white">eq</text><text x="707" y="124" text-anchor="middle" font-family="Arial,sans-serif" font-size="12" fill="white">gt</text><text x="707" y="146" text-anchor="middle" font-family="Arial,sans-serif" font-size="12" fill="white">in</text><text x="707" y="168" text-anchor="middle" font-family="Arial,sans-serif" font-size="12" fill="white">contains</text><rect x="260" y="240" width="340" height="65" rx="10" fill="#1a237e"/><text x="430" y="265" text-anchor="middle" font-family="Arial,sans-serif" font-size="14" font-weight="bold" fill="white">Pivot Result Table</text><text x="430" y="288" text-anchor="middle" font-family="Arial,sans-serif" font-size="11" fill="#dddddd">Subtotals  |  Grand Total</text><line x1="107" y1="220" x2="430" y2="240" stroke="#aaaaaa" stroke-width="2"/><line x1="307" y1="220" x2="430" y2="240" stroke="#aaaaaa" stroke-width="2"/><line x1="517" y1="220" x2="430" y2="240" stroke="#aaaaaa" stroke-width="2"/><line x1="707" y1="220" x2="430" y2="240" stroke="#aaaaaa" stroke-width="2"/></svg>